<svg width="181" height="40" viewBox="0 0 181 40" fill="none" xmlns="http://www.w3.org/2000/svg">
<g clip-path="url(#clip0_567_1212)">
<path d="M47.4018 0.945312C36.73 0.945312 28.0449 9.69082 28.0449 20.4438C28.0449 31.1967 36.7269 39.9453 47.4018 39.9453C58.0767 39.9453 66.7587 31.1967 66.7587 20.4438C66.7587 9.69082 58.0767 0.945312 47.4018 0.945312ZM62.393 20.4438C62.393 28.7691 55.6698 35.5445 47.4049 35.5445C39.14 35.5445 32.4168 28.7691 32.4168 20.4438C32.4168 12.1184 39.14 5.34608 47.4049 5.34608C55.6698 5.34608 62.393 12.1184 62.393 20.4438Z" fill="white"/>
<path d="M2.18441 1.55469H0V5.95545H2.18441H21.7885H23.9729V1.55469H21.7885H2.18441Z" fill="white"/>
<path d="M88.4265 1.55469H72.7031V5.95545H88.4265C92.2516 5.95545 95.3629 9.08952 95.3629 12.9425C95.3629 16.7955 92.2516 19.9296 88.4265 19.9296L72.7031 19.9234V39.3316H77.0719V37.1374C77.0719 37.1374 77.0719 37.1343 77.0719 37.1312V24.3273H88.4265C94.6584 24.3273 99.7317 19.22 99.7317 12.9394C99.7317 6.65883 94.6584 1.55469 88.4265 1.55469Z" fill="white"/>
<path d="M4.36882 22.1469H21.1211V17.7461H0V39.3329H23.9729V34.9352H4.36882V22.1469Z" fill="white"/>
<path d="M177.144 28.5322C174.36 32.9205 169.63 35.5411 164.485 35.5411C156.217 35.5411 149.491 28.7656 149.491 20.4403C149.491 12.1149 156.217 5.35194 164.485 5.35194C169.642 5.35194 174.375 7.97248 177.144 12.3608L177.308 12.6222L180.997 10.2787L180.83 10.0141C177.252 4.34045 171.14 0.951172 164.485 0.951172C153.817 0.951172 145.138 9.69357 145.138 20.4403C145.138 31.187 153.817 39.9418 164.485 39.9418C171.147 39.9418 177.252 36.5526 180.817 30.8758L180.984 30.6143L177.311 28.2708L177.144 28.5322Z" fill="white"/>
<path d="M138.338 1.55469H133.969V39.3316H138.338V1.55469Z" fill="white"/>
<path d="M117.887 10.6738H113.519V39.3317H117.887V10.6738Z" fill="white"/>
<path d="M128.805 1.55469H102.602V5.95545H128.805V1.55469Z" fill="white"/>
</g>
<defs>
<clipPath id="clip0_567_1212">
<rect width="181" height="39" fill="white" transform="translate(0 0.945312)"/>
</clipPath>
</defs>
</svg>
