<?xml version="1.0" encoding="UTF-8" standalone="no"?>
<!-- Created with Inkscape (http://www.inkscape.org/) -->

<svg
   width="1920"
   height="1080"
   viewBox="0 0 1920 1080"
   version="1.1"
   id="svg1"
   inkscape:version="1.4 (86a8ad7, 2024-10-11)"
   sodipodi:docname="LogoDark.svg"
   xmlns:inkscape="http://www.inkscape.org/namespaces/inkscape"
   xmlns:sodipodi="http://sodipodi.sourceforge.net/DTD/sodipodi-0.dtd"
   xmlns:xlink="http://www.w3.org/1999/xlink"
   xmlns="http://www.w3.org/2000/svg"
   xmlns:svg="http://www.w3.org/2000/svg">
  <sodipodi:namedview
     id="namedview1"
     pagecolor="#505050"
     bordercolor="#ffffff"
     borderopacity="1"
     inkscape:showpageshadow="0"
     inkscape:pageopacity="0"
     inkscape:pagecheckerboard="1"
     inkscape:deskcolor="#505050"
     inkscape:document-units="px"
     inkscape:zoom="0.5283659"
     inkscape:cx="991.73698"
     inkscape:cy="593.33882"
     inkscape:window-width="1920"
     inkscape:window-height="1009"
     inkscape:window-x="-8"
     inkscape:window-y="-8"
     inkscape:window-maximized="1"
     inkscape:current-layer="layer1" />
  <defs
     id="defs1">
    <linearGradient
       id="linearGradient28"
       inkscape:collect="always">
      <stop
         style="stop-color:#ffffff;stop-opacity:1;"
         offset="0"
         id="stop28" />
      <stop
         style="stop-color:#ffe800;stop-opacity:0;"
         offset="1"
         id="stop29" />
    </linearGradient>
    <linearGradient
       id="linearGradient26"
       inkscape:collect="always">
      <stop
         style="stop-color:#ffffff;stop-opacity:1;"
         offset="0"
         id="stop26" />
      <stop
         style="stop-color:#bfbfbf;stop-opacity:1;"
         offset="1"
         id="stop27" />
    </linearGradient>
    <linearGradient
       id="linearGradient24"
       inkscape:collect="always">
      <stop
         style="stop-color:#ffffff;stop-opacity:1;"
         offset="0"
         id="stop24" />
      <stop
         style="stop-color:#bfbfbf;stop-opacity:1;"
         offset="1"
         id="stop25" />
    </linearGradient>
    <linearGradient
       id="linearGradient21"
       inkscape:collect="always">
      <stop
         style="stop-color:#ffffff;stop-opacity:1;"
         offset="0"
         id="stop22" />
      <stop
         style="stop-color:#bfbfbf;stop-opacity:1;"
         offset="1"
         id="stop23" />
    </linearGradient>
    <linearGradient
       id="linearGradient19"
       inkscape:collect="always">
      <stop
         style="stop-color:#ffef00;stop-opacity:1;"
         offset="0.23602484"
         id="stop20" />
      <stop
         style="stop-color:#ff7700;stop-opacity:1;"
         offset="0.67701864"
         id="stop21" />
      <stop
         style="stop-color:#ff0000;stop-opacity:1;"
         offset="1"
         id="stop19" />
    </linearGradient>
    <linearGradient
       id="linearGradient12"
       inkscape:collect="always">
      <stop
         style="stop-color:#006600;stop-opacity:1;"
         offset="0"
         id="stop13" />
      <stop
         style="stop-color:#00ce00;stop-opacity:1;"
         offset="0.5"
         id="stop15" />
      <stop
         style="stop-color:#006600;stop-opacity:1;"
         offset="1"
         id="stop14" />
    </linearGradient>
    <rect
       x="177.99257"
       y="184.68401"
       width="1742.0074"
       height="895.31599"
       id="rect1" />
    <linearGradient
       inkscape:collect="always"
       xlink:href="#linearGradient12"
       id="linearGradient14"
       x1="898.99817"
       y1="530.77258"
       x2="949.92957"
       y2="530.77258"
       gradientUnits="userSpaceOnUse"
       gradientTransform="matrix(0.97983585,0,0,0.97983585,54.176965,64.110796)"
       spreadMethod="repeat" />
    <radialGradient
       inkscape:collect="always"
       xlink:href="#linearGradient19"
       id="radialGradient20"
       cx="959.18787"
       cy="428.40469"
       fx="959.18787"
       fy="428.40469"
       r="23.635657"
       gradientTransform="matrix(1,0,0,1.5638201,0,-235.06068)"
       gradientUnits="userSpaceOnUse" />
    <rect
       x="177.99257"
       y="184.68401"
       width="1742.0074"
       height="895.31598"
       id="rect1-4" />
    <rect
       x="177.99257"
       y="184.68401"
       width="1742.0074"
       height="895.31598"
       id="rect1-5" />
    <linearGradient
       inkscape:collect="always"
       xlink:href="#linearGradient21"
       id="linearGradient23"
       x1="1052.043"
       y1="127.63672"
       x2="1052.043"
       y2="486.23047"
       gradientUnits="userSpaceOnUse" />
    <linearGradient
       inkscape:collect="always"
       xlink:href="#linearGradient24"
       id="linearGradient25"
       x1="1049.9336"
       y1="125.71484"
       x2="1049.9336"
       y2="454.12109"
       gradientUnits="userSpaceOnUse" />
    <linearGradient
       inkscape:collect="always"
       xlink:href="#linearGradient26"
       id="linearGradient27"
       x1="959.99994"
       y1="1390.2317"
       x2="959.99994"
       y2="365.45422"
       gradientUnits="userSpaceOnUse" />
    <radialGradient
       inkscape:collect="always"
       xlink:href="#linearGradient28"
       id="radialGradient29"
       cx="924.34991"
       cy="376.71671"
       fx="924.34991"
       fy="376.71671"
       r="235.52988"
       gradientTransform="matrix(1,0,0,0.92982456,0,26.436259)"
       gradientUnits="userSpaceOnUse" />
  </defs>
  <g
     inkscape:label="Layer 1"
     inkscape:groupmode="layer"
     id="layer1">
    <text
       xml:space="preserve"
       id="text1"
       style="font-size:192px;font-family:'Vladimir Script';-inkscape-font-specification:'Vladimir Script';text-align:start;writing-mode:lr-tb;direction:ltr;white-space:pre;shape-inside:url(#rect1);display:none;fill:#ffffff;fill-opacity:1;stroke-width:10"
       x="400.17188"
       y="0"
       transform="matrix(2.527459,0,0,2.527459,-1701.3649,-192.04493)"><tspan
         x="657.21484"
         y="351.46484"
         id="tspan2"><tspan
           style="font-family:Corbel;-inkscape-font-specification:Corbel;text-align:center;text-anchor:middle"
           id="tspan1">Luminous
</tspan></tspan></text>
    <path
       style="font-size:192px;font-family:Corbel;-inkscape-font-specification:Corbel;text-align:center;text-anchor:middle;white-space:pre;fill:url(#linearGradient25);stroke-width:10"
       d="m 901.01172,226.02734 v 111.65625 h 61.21875 v 13.78125 h -76.5 v -125.4375 z m 118.12498,127.78125 q -6.9375,0 -12.4687,-1.5 -5.5313,-1.5 -9.75003,-4.21875 -4.125,-2.71875 -7.03125,-6.46875 -2.90625,-3.84375 -4.59375,-8.34375 -1.3125,-3.375 -1.875,-7.40625 -0.5625,-4.03125 -0.5625,-8.8125 v -54.65625 h 14.53125 v 54.5625 q 0,7.40625 1.96875,12.375 2.25003,5.625 7.21873,8.90625 5.0625,3.1875 12.8438,3.1875 8.25,0 13.2187,-3.5625 5.0625,-3.5625 7.2188,-9.5625 1.5937,-4.59375 1.5937,-11.34375 v -54.5625 h 14.5313 v 54.75 q 0,4.5 -0.5625,8.4375 -0.4688,3.84375 -1.5938,7.125 -1.6875,4.59375 -4.6875,8.53125 -2.9062,3.84375 -7.2187,6.65625 -4.3125,2.8125 -10.0313,4.3125 -5.625,1.59375 -12.75,1.59375 z m 136.7813,-2.34375 h -14.5313 v -57.28125 q 0,-5.8125 -1.3125,-9.84375 -1.2187,-4.125 -3.6562,-6.75 -2.3438,-2.625 -5.7188,-3.84375 -3.2812,-1.21875 -7.4062,-1.21875 -7.7813,0 -14.1563,4.21875 -6.375,4.125 -11.4375,11.4375 v 63.28125 h -14.5312 v -89.0625 h 11.25 l 2.8125,12.375 h 0.2812 q 2.4375,-3.09375 5.25,-5.71875 2.9063,-2.71875 6.375,-4.6875 3.5625,-2.0625 7.7813,-3.1875 4.2187,-1.125 9.1875,-1.125 9.9375,0 16.5,4.78125 6.5625,4.78125 10.125,13.03125 h 0.375 q 5.9062,-8.34375 13.5,-13.03125 7.5937,-4.78125 17.7187,-4.78125 4.6875,0 9.9375,1.3125 5.25,1.3125 9.6563,4.875 4.4062,3.46875 7.3125,9.65625 2.9062,6.1875 2.9062,15.9375 v 59.625 h -14.4375 v -57.28125 q 0,-5.8125 -1.3125,-9.84375 -1.2187,-4.125 -3.6562,-6.75 -2.3438,-2.625 -5.7188,-3.84375 -3.2812,-1.21875 -7.4062,-1.21875 -7.7813,0 -14.25,4.21875 -6.375,4.125 -11.4375,11.4375 z"
       id="text1-8"
       transform="matrix(2.527459,0,0,2.527459,-2238.6474,-193.46663)"
       aria-label="Lum&#10;" />
    <ellipse
       style="fill:url(#radialGradient29);fill-opacity:1;stroke-width:10.9163"
       id="path27"
       cx="924.34991"
       cy="376.71671"
       rx="235.52988"
       ry="219.00146" />
    <path
       d="M 466.25603,934.06329 H 447.61124 V 781.01582 h 42.43693 q 9.49397,0 17.50094,1.14386 8.12135,1.14385 14.87008,3.54594 13.72623,4.91856 20.81812,14.7557 7.09188,9.72274 7.09188,24.0209 0,11.6673 -4.68979,20.58935 -4.57541,8.80766 -13.38308,14.75569 -8.80766,5.94804 -21.50442,9.03644 -12.58238,2.97401 -28.59632,2.97401 -7.66381,0 -15.89955,-0.68631 z m 0,-79.95529 q 3.77472,0.45754 7.89258,0.68631 4.11787,0.22877 7.7782,0.22877 13.15431,0 22.41951,-2.05893 9.26521,-2.05894 15.09886,-5.94804 5.83364,-4.00348 8.4645,-9.60836 2.63087,-5.71926 2.63087,-12.92553 0,-8.92205 -4.34664,-14.64131 -4.23226,-5.71927 -12.12484,-8.69328 -4.91857,-1.83017 -11.32414,-2.51648 -6.40558,-0.80069 -14.87008,-0.80069 h -21.61882 z m 124.108,0.22877 q 0,4.46103 1.94455,7.32066 1.94455,2.85963 5.14734,4.68979 3.31717,1.71578 7.54942,2.85963 4.34664,1.14386 8.92205,2.05894 6.29119,1.37262 11.89607,3.0884 5.60488,1.60139 10.29467,4.91857 4.80418,3.31717 7.66381,9.03643 2.97402,5.60488 2.97402,14.64131 0,8.23574 -3.20279,14.64132 -3.20278,6.29119 -9.03643,10.63783 -5.83365,4.23225 -13.955,6.40557 -8.12136,2.2877 -17.8441,2.2877 -5.94804,0 -10.8666,-0.68631 -4.80418,-0.57192 -8.5789,-1.60139 -3.66032,-0.91508 -6.29118,-1.94455 -2.63086,-1.02947 -4.34664,-1.94455 v -14.87008 q 6.86311,2.74524 13.61184,4.34664 6.74873,1.60139 14.87008,1.60139 6.40558,0 11.55292,-1.14385 5.14733,-1.14385 8.80766,-3.31717 3.77471,-2.28771 5.71926,-5.60488 2.05894,-3.43156 2.05894,-7.89258 0,-4.57541 -1.83017,-7.54943 -1.83016,-2.97402 -4.91856,-4.91857 -3.0884,-1.94455 -7.20627,-3.20278 -4.00349,-1.25824 -8.46451,-2.28771 -5.83365,-1.25824 -11.89607,-2.97402 -5.94803,-1.71577 -10.8666,-4.80418 -4.91856,-3.0884 -8.00697,-8.35012 -2.97401,-5.37611 -2.97401,-13.72623 0,-8.57889 3.0884,-14.87008 3.0884,-6.29119 8.35012,-10.40906 5.26172,-4.11787 12.23922,-6.17681 6.97751,-2.05893 14.7557,-2.05893 9.03644,0 16.70025,1.71578 7.7782,1.71578 14.06939,4.34664 v 15.09885 q -6.86312,-2.63086 -13.955,-4.23225 -6.97751,-1.71578 -14.41255,-1.83017 -6.29119,0 -10.75221,1.25824 -4.46103,1.25824 -7.32066,3.54594 -2.85963,2.17332 -4.23225,5.26173 -1.25824,2.97401 -1.25824,6.63434 z m 69.54623,-28.93947 h 18.18725 l 33.74365,85.21702 h 0.68632 l 34.20119,-85.21702 h 18.64479 l -67.83045,161.85514 h -17.61533 l 23.2202,-55.36247 z M 832.632,822.53767 q 7.89258,0 15.09885,1.71578 7.20627,1.60139 12.35361,4.57541 v 14.7557 q -7.20627,-2.74525 -13.26869,-4.11787 -6.06242,-1.37263 -12.35361,-1.37263 -6.63434,0 -13.1543,2.17332 -6.51996,2.17332 -11.6673,7.20628 -5.14734,4.91856 -8.35012,13.1543 -3.0884,8.12135 -3.0884,20.24619 0,8.80766 2.2877,16.24271 2.40209,7.43504 6.9775,12.92553 4.6898,5.37611 11.6673,8.46451 6.9775,2.97402 16.12832,2.97402 6.63434,0 13.38307,-1.37263 6.74873,-1.48701 13.15431,-4.11787 v 14.7557 q -1.94455,1.14385 -5.14734,2.28771 -3.0884,1.14385 -6.86311,1.94455 -3.77472,0.91508 -8.00697,1.37262 -4.23226,0.57192 -8.46451,0.57192 -10.98099,0 -20.81812,-3.31717 -9.72274,-3.31717 -17.0434,-10.18029 -7.32066,-6.86311 -11.55291,-17.38655 -4.23226,-10.52345 -4.23226,-24.93599 0,-10.75221 2.17332,-19.33111 2.28771,-8.57889 6.17681,-15.09885 3.8891,-6.51996 9.03643,-11.09537 5.26172,-4.57541 11.09537,-7.43504 5.94804,-2.97402 12.23922,-4.23226 6.29119,-1.37262 12.23923,-1.37262 z m 74.92234,17.72971 h 0.34315 q 2.97402,-3.77471 6.63435,-6.9775 3.66033,-3.31717 8.12135,-5.60487 4.46103,-2.40209 9.60836,-3.77472 5.14734,-1.37262 11.09537,-1.37262 6.1768,0 12.35361,1.71578 6.1768,1.60139 11.43852,5.83365 5.26173,4.23225 8.5789,11.78168 3.31717,7.54942 3.31717,19.44549 v 72.74902 H 961.31541 V 864.1739 q 0,-13.1543 -5.03295,-19.78865 -4.91857,-6.63434 -16.24271,-6.63434 -9.37959,0 -17.8441,5.14734 -8.46451,5.03295 -14.64131,13.955 v 77.21004 H 889.82462 V 768.43344 h 17.72972 z m 106.95026,93.79591 V 825.3973 h 17.7297 v 108.66599 z m -0.4576,-133.94513 v -19.78865 h 18.6448 v 19.78865 z m 117.2449,121.93468 h -0.4575 q -2.1734,2.74525 -5.4905,5.49049 -3.3172,2.63086 -7.6638,4.80418 -4.3467,2.05894 -9.494,3.31718 -5.1473,1.25823 -10.981,1.25823 -7.8926,0 -14.5269,-2.40209 -6.52,-2.2877 -11.3242,-6.74873 -4.6898,-4.57541 -7.3206,-11.09537 -2.6309,-6.51995 -2.6309,-14.75569 0,-8.12136 2.8597,-14.52693 2.974,-6.40557 8.2357,-10.8666 5.2617,-4.46102 12.5824,-6.86311 7.435,-2.4021 16.3571,-2.4021 8.4645,0.11439 15.6707,1.48701 7.2063,1.37263 12.8112,3.43156 h 0.4575 v -7.54943 q 0,-4.46102 -0.5719,-7.89258 -0.5719,-3.43156 -1.9445,-6.06242 -2.9741,-5.49049 -9.494,-9.03643 -6.52,-3.66033 -17.6154,-3.66033 -8.2357,0 -15.5563,1.60139 -7.2063,1.48701 -14.4126,4.23226 v -14.87009 q 2.7453,-1.37262 6.4056,-2.51647 3.7747,-1.25824 7.8926,-2.05894 4.1178,-0.91508 8.6932,-1.37262 4.5755,-0.45754 9.1509,-0.45754 16.4714,0 26.8805,5.83365 10.5234,5.83365 15.0989,15.44201 1.7157,3.66033 2.402,8.12135 0.8007,4.34664 0.8007,9.60836 v 72.52025 h -14.87 z m -0.9151,-35.6882 q -4.9185,-1.37262 -11.6673,-2.63086 -6.7487,-1.25824 -14.8701,-1.37262 -11.3241,0 -17.7297,4.80418 -6.4055,4.80418 -6.4055,14.7557 0,5.03295 1.6014,8.80766 1.6013,3.77471 4.3466,6.29119 2.8596,2.40209 6.6343,3.66033 3.8891,1.14385 8.2358,1.14385 5.7192,0 10.6378,-1.60139 4.9186,-1.71578 8.6933,-4.00349 3.8891,-2.2877 6.5199,-4.57541 2.7453,-2.2877 4.0035,-3.54594 z m 109.3523,47.92742 q -2.2877,0.91509 -6.9775,1.71578 -4.6898,0.8007 -11.2097,0.91508 -8.5789,0 -14.8701,-2.17332 -6.2912,-2.05893 -10.5235,-5.94803 -4.1178,-4.00348 -6.1768,-9.60836 -2.0589,-5.60488 -2.0589,-12.46799 v -66.11468 h -20.9325 V 825.3973 h 20.9325 v -29.74016 h 17.7297 v 29.74016 h 32.4854 v 15.21324 h -32.4854 v 63.36943 q 0,3.77471 1.0295,6.9775 1.1438,3.20279 3.4315,5.60488 2.4021,2.2877 6.0625,3.66033 3.6603,1.25824 8.8076,1.25824 3.546,0 7.4351,-0.57193 4.0034,-0.57193 7.3206,-1.48701 z m 83.6157,-94.48222 h -1.3727 q -6.2911,0 -12.3536,1.14386 -6.0624,1.14385 -11.4385,3.54594 -5.2617,2.2877 -9.6084,5.71926 -4.2322,3.43156 -7.0918,8.12135 v 75.72304 H 1263.75 V 825.3973 h 13.7263 l 3.4315,17.27217 h 0.3432 q 2.6308,-4.23225 6.4056,-7.89258 3.8891,-3.66033 8.6932,-6.40557 4.8042,-2.74525 10.5235,-4.23226 5.7192,-1.60139 12.0104,-1.60139 1.1439,0 2.2877,0.11439 1.2583,0 2.1734,0.11438 z m 20.0174,94.25345 V 825.3973 h 17.7297 v 108.66599 z m -0.4576,-133.94513 v -19.78865 h 18.6448 v 19.78865 z m 100.3159,22.41951 q 7.8926,0 15.0989,1.71578 7.2062,1.60139 12.3536,4.57541 v 14.7557 q -7.2063,-2.74525 -13.2687,-4.11787 -6.0624,-1.37263 -12.3536,-1.37263 -6.6344,0 -13.1543,2.17332 -6.52,2.17332 -11.6673,7.20628 -5.1474,4.91856 -8.3502,13.1543 -3.0884,8.12135 -3.0884,20.24619 0,8.80766 2.2877,16.24271 2.4021,7.43504 6.9775,12.92553 4.6898,5.37611 11.6673,8.46451 6.9775,2.97402 16.1284,2.97402 6.6343,0 13.383,-1.37263 6.7488,-1.48701 13.1543,-4.11787 v 14.7557 q -1.9445,1.14385 -5.1473,2.28771 -3.0884,1.14385 -6.8631,1.94455 -3.7747,0.91508 -8.007,1.37262 -4.2322,0.57192 -8.4645,0.57192 -10.981,0 -20.8181,-3.31717 -9.7228,-3.31717 -17.0434,-10.18029 -7.3207,-6.86311 -11.5529,-17.38655 -4.2323,-10.52345 -4.2323,-24.93599 0,-10.75221 2.1733,-19.33111 2.2877,-8.57889 6.1768,-15.09885 3.8891,-6.51996 9.0365,-11.09537 5.2617,-4.57541 11.0954,-7.43504 5.948,-2.97402 12.2392,-4.23226 6.2912,-1.37262 12.2392,-1.37262 z"
       id="text2"
       style="font-size:234.261px;line-height:0;font-family:Corbel;-inkscape-font-specification:Corbel;text-align:center;text-anchor:middle;fill:url(#linearGradient27);stroke-width:12.2011"
       aria-label="Psychiatric" />
    <g
       id="g21"
       transform="matrix(1.1903848,0,0,1.1903848,-219.73295,-126.63512)">
      <path
         id="rect7"
         style="fill:url(#linearGradient14);stroke-width:9.79839"
         d="m 960.37985,467.22568 a 24.571656,4.8679698 0 0 0 -24.57053,4.86664 h -0.76167 v 224.17573 h 49.90469 V 472.09232 a 24.571656,4.8679698 0 0 0 -24.57249,-4.86664 z" />
      <path
         id="path15"
         style="display:inline;fill:url(#radialGradient20);stroke-width:10"
         d="m 958.37891,379.94531 c -13.5546,13.37384 -18.32971,36.32742 -19.83399,46.44141 a 22.081785,22.416357 0 0 0 -0.62695,5.0664 22.081785,22.416357 0 0 0 22.08203,22.41602 22.081785,22.416357 0 0 0 22.08203,-22.41602 22.081785,22.416357 0 0 0 -7.24805,-16.60546 c 0.0419,0.0364 23.50567,20.43908 -0.34375,-0.3086 -23.8707,-20.76619 -16.11132,-34.59375 -16.11132,-34.59375 z" />
    </g>
    <path
       style="font-size:192px;font-family:Corbel;-inkscape-font-specification:Corbel;text-align:center;text-anchor:middle;white-space:pre;fill:url(#linearGradient23);stroke-width:10"
       d="m 886.80859,274.77734 h 0.28125 q 2.4375,-3.09375 5.34375,-5.71875 3,-2.71875 6.65625,-4.6875 3.65625,-2.0625 7.96875,-3.1875 4.40625,-1.125 9.5625,-1.125 6.09375,0 11.4375,1.6875 5.34375,1.6875 9.28125,5.4375 3.9375,3.75 6.1875,9.84375 2.34375,6 2.34375,14.8125 v 59.625 h -14.53125 v -57.28125 q 0,-11.53125 -4.5,-16.59375 -4.40625,-5.0625 -12.9375,-5.0625 -7.5,0 -14.53125,4.21875 -7.03125,4.125 -12.09375,11.4375 v 63.28125 h -14.53125 v -89.0625 h 11.25 z m 151.40621,32.25 q 0,-8.25 -2.0625,-14.625 -1.9687,-6.46875 -5.625,-10.875 -3.5625,-4.5 -8.5312,-6.75 -4.9688,-2.34375 -10.875,-2.34375 -5.9063,0 -10.875,2.34375 -4.96876,2.25 -8.62501,6.75 -3.5625,4.40625 -5.625,10.875 -1.96875,6.375 -1.96875,14.625 0,8.15625 1.96875,14.625 2.0625,6.375 5.71875,10.78125 3.65625,4.40625 8.62496,6.75 4.9688,2.25 10.875,2.25 5.9063,0 10.7813,-2.25 4.9687,-2.34375 8.5312,-6.75 3.6563,-4.40625 5.625,-10.78125 2.0625,-6.46875 2.0625,-14.625 z m 15.1875,0 q 0,10.5 -3,19.125 -3,8.625 -8.5312,14.8125 -5.4375,6.09375 -13.2188,9.46875 -7.7812,3.375 -17.4375,3.375 -9.9375,0 -17.81246,-3.375 -7.78125,-3.375 -13.3125,-9.46875 -5.4375,-6.1875 -8.34375,-14.8125 -2.90625,-8.625 -2.90625,-19.125 0,-10.59375 3,-19.21875 3,-8.625 8.4375,-14.8125 5.53125,-6.1875 13.3125,-9.5625 7.87496,-3.375 17.53126,-3.375 9.8437,0 17.7187,3.375 7.875,3.375 13.3125,9.5625 5.4375,6.1875 8.3438,14.8125 2.9062,8.625 2.9062,19.21875 z m 58.3125,46.78125 q -6.9375,0 -12.4687,-1.5 -5.5313,-1.5 -9.75,-4.21875 -4.125,-2.71875 -7.0313,-6.46875 -2.9062,-3.84375 -4.5937,-8.34375 -1.3125,-3.375 -1.875,-7.40625 -0.5625,-4.03125 -0.5625,-8.8125 v -54.65625 h 14.5312 v 54.5625 q 0,7.40625 1.9688,12.375 2.25,5.625 7.2187,8.90625 5.0625,3.1875 12.8438,3.1875 8.25,0 13.2187,-3.5625 5.0625,-3.5625 7.2188,-9.5625 1.5937,-4.59375 1.5937,-11.34375 v -54.5625 h 14.5313 v 54.75 q 0,4.5 -0.5625,8.4375 -0.4688,3.84375 -1.5938,7.125 -1.6875,4.59375 -4.6875,8.53125 -2.9062,3.84375 -7.2187,6.65625 -4.3125,2.8125 -10.0313,4.3125 -5.625,1.59375 -12.75,1.59375 z m 73.4063,-67.6875 q 0,3.65625 1.5937,6 1.5938,2.34375 4.2188,3.84375 2.7187,1.40625 6.1875,2.34375 3.5625,0.9375 7.3125,1.6875 5.1562,1.125 9.75,2.53125 4.5937,1.3125 8.4375,4.03125 3.9375,2.71875 6.2812,7.40625 2.4375,4.59375 2.4375,12 0,6.75 -2.625,12 -2.625,5.15625 -7.4062,8.71875 -4.7813,3.46875 -11.4375,5.25 -6.6563,1.875 -14.625,1.875 -4.875,0 -8.9063,-0.5625 -3.9375,-0.46875 -7.0312,-1.3125 -3,-0.75 -5.1563,-1.59375 -2.1562,-0.84375 -3.5625,-1.59375 v -12.1875 q 5.625,2.25 11.1563,3.5625 5.5312,1.3125 12.1875,1.3125 5.25,0 9.4687,-0.9375 4.2188,-0.9375 7.2188,-2.71875 3.0937,-1.875 4.6875,-4.59375 1.6875,-2.8125 1.6875,-6.46875 0,-3.75 -1.5,-6.1875 -1.5,-2.4375 -4.0313,-4.03125 -2.5312,-1.59375 -5.9062,-2.625 -3.2813,-1.03125 -6.9375,-1.875 -4.7813,-1.03125 -9.75,-2.4375 -4.875,-1.40625 -8.9063,-3.9375 -4.0312,-2.53125 -6.5625,-6.84375 -2.4375,-4.40625 -2.4375,-11.25 0,-7.03125 2.5313,-12.1875 2.5312,-5.15625 6.8437,-8.53125 4.3125,-3.375 10.0313,-5.0625 5.7187,-1.6875 12.0937,-1.6875 7.4063,0 13.6875,1.40625 6.375,1.40625 11.5313,3.5625 v 12.375 q -5.625,-2.15625 -11.4375,-3.46875 -5.7188,-1.40625 -11.8125,-1.5 -5.1563,0 -8.8125,1.03125 -3.6563,1.03125 -6,2.90625 -2.3438,1.78125 -3.4688,4.3125 -1.0312,2.4375 -1.0312,5.4375 z"
       id="text1-7"
       transform="matrix(2.527459,0,0,2.527459,-1192.1609,-192.04493)"
       aria-label="nous&#10;" />
  </g>
</svg>
